# xmcd CD database file
#
# Track frame offsets:
#	150
#	37227
#	84137
#	113405
#	140300
#	173436
#	191513
#
# Disc length: 3018 seconds
#
# Revision: 0
# Processed by: cddbd v1.5.2PL0 Copyright (c) Steve Scherf et al.
# Submitted via: CDex 1.70beta2
#
DISCID=4a0bc807
DTITLE=Atomic - Retrograde
DYEAR=2008
DGENRE=Jazz
TTITLE0=Db Gestalt
TTITLE1=Retrograde
TTITLE2=Invisible Cities
TTITLE3=Painbody
TTITLE4=Correspondence
TTITLE5=Sweet Ebony
TTITLE6=King Kolax
EXTD=YEAR: 2008
EXTT0=
EXTT1=
EXTT2=
EXTT3=
EXTT4=
EXTT5=
EXTT6=
PLAYORDER=
